inDegrees=yes
name=t4_motion.mot
DataType=double
version=3
OpenSimVersion=4.4-2022-07-23-0e9fedc
endheader
time	pelvis_tilt	pelvis_list	pelvis_rotation	pelvis_tx	pelvis_ty	pelvis_tz	hip_flexion_r	hip_adduction_r	hip_rotation_r	knee_angle_r	knee_angle_r_beta	ankle_angle_r	subtalar_angle_r	mtp_angle_r	hip_flexion_l	hip_adduction_l	hip_rotation_l	knee_angle_l	knee_angle_l_beta	ankle_angle_l	subtalar_angle_l	mtp_angle_l	lumbar_extension	lumbar_bending	lumbar_rotation	arm_flex_r	arm_add_r	arm_rot_r	elbow_flex_r	pro_sup_r	wrist_flex_r	wrist_dev_r	arm_flex_l	arm_add_l	arm_rot_l	elbow_flex_l	pro_sup_l	wrist_flex_l	wrist_dev_l
13.97794795036316	0	0	0	0	0.93	0	41.42315829961505	3.720260808236455	1.917578114297563	0.0110092234635813	0.0001921471975273077	0	0	0	0	0	0	0	0	0	0	0	0	0	0	0	0	0	0	0	0	0	0	0	0	0	0	0	0
13.98194003105164	0	-6.896728590703373e-34	1.724182147675843e-34	0	0.93	0	38.75537332283042	2.694767137282637	2.776753972137766	0.007114942950733526	0.0001241791805818607	0	0	0	0	1.077613842297402e-35	0	1.127466144640498e-39	-3.500163304190528e-41	0	0	0	0	0	0	0	0	0	2.104714535737113e-38	0	0	0	0	0	0	2.104714535737113e-38	0	0	0
13.99295377731323	-2.41385500674618e-33	-6.465683053784412e-35	3.232841526892206e-35	0	0.93	0	38.67586356303536	2.668569257000217	2.791160636438458	0.007190190456025695	0.0001254924973031209	6.540988937633651e-36	0	0	0	0	0	0	1.697008740675776e-39	6.540988937633651e-36	0	0	0	0	0	0	0	0	0	0	0	0	0	0	0	0	0	0	0
14.00294089317322	0	0	0	0	0.93	0	36.0091377475322	2.664043497284575	2.397671407378287	0.005534642155451004	9.659772853229583e-05	0	0	0	0	0	0	0	-3.673419846319648e-40	0	0	0	0	0	0	0	0	0	0	2.861096322017639e-38	0	0	0	0	0	0	2.861096322017639e-38	0	0
14.00892996788025	0	0	0	0	0.93	0	34.19203045497048	2.732605518406272	2.167056812602967	0.00477407829321843	8.332338496465288e-05	0	0	0	0	0	0	1.267952306203879e-38	2.138404667276056e-40	0	0	0	0	0	0	0	0	0	0	0	0	0	0	0	0	0	0	0	0
14.01495599746704	6.896728590703373e-34	8.082103817230515e-36	6.896728590703373e-34	0	0.93	0	34.10822651294213	2.708370067932241	2.156295114748675	0.004805291447906649	8.38681572838966e-05	0	0	0	-1.115739753336365e-65	0	0	7.84067264101324e-47	6.842277657836021e-48	0	0	0	0	0	0	0	0	0	2.064302093766767e-46	7.84067264101324e-47	0	-1.965827184449786e-65	0	0	0	2.064302093766767e-46	7.84067264101324e-47	0	-1.965827184449786e-65
14.01895403862	-4.310455369189608e-34	2.586273221513765e-34	1.724182147675843e-34	0	0.93	0	33.32120954294839	2.71558716560404	2.055405290029503	0.004532749061361713	7.911139528744439e-05	0	0	0	-2.155227684594804e-35	0	0	1.066204899358684e-38	1.424952669778282e-40	0	0	0	0	0	0	0	4.98368883900887e-50	0	3.044029893728614e-39	0	0	-2.49233789972181e-50	0	4.98368883900887e-50	0	3.044029893728614e-39	0	0	-2.49233789972181e-50
14.02496409416199	1.293136610756882e-34	-7.543296896081814e-35	-7.758819664541295e-34	0	0.93	0	33.13793169987774	2.67273471770613	2.058843327110842	0.004600302914766571	8.029043245176874e-05	0	0	0	2.975306008896974e-65	-2.392783398746716e-51	0	0	2.394797180242607e-48	0	0	0	0	0	0	0	-3.166961336134963e-52	0	0	0	0	-1.196391699373358e-51	0	-3.166961336134963e-52	0	0	0	0	-1.196391699373358e-51
14.03094816207886	0	0	0	0	0.93	0	31.19590706110003	2.731659204616209	1.814170365807343	0.004033432276787031	7.039667338614494e-05	0	0	0	0	0	0	0	1.462475884668518e-41	0	0	0	0	0	0	0	0	0	1.052357267868557e-38	0	0	0	0	0	0	1.052357267868557e-38	0	0	0
14.03594493865967	1.724182147675843e-34	-1.293136610756882e-34	-1.724182147675843e-34	8.018294130276587e-51	0.93	-2.940041181101415e-50	31.02154922259512	2.697648601163318	1.816016807370543	0.004081200493736122	7.123038604971353e-05	0	1.531381375197898e-48	1.257575434816099e-36	0	0	0	0	-2.350988701644575e-38	0	0	0	6.699793516490805e-50	0	-9.80084080126655e-48	0	1.119550799354469e-50	0	0	0	-4.785566797493432e-51	0	0	1.119550799354469e-50	0	0	0	0	0
14.04193472862244	-1.233732173537325e-26	1.743851537691633e-17	-1.45605828026148e-26	-2.049667729637966e-18	0.93	-1.990286519791619e-19	30.73834077330891	2.640625224749406	1.799523192976247	0.004176585655914957	7.28951711873076e-05	-9.013632545965533e-17	1.514186157931233e-16	-4.956910784737466e-15	-3.369291146831588e-29	4.910619761017743e-20	4.561668456907219e-34	0	-2.771047626824509e-17	-4.729581342609038e-15	-1.89461071439593e-17	3.595244195822617e-15	-1.719547942624785e-25	6.801210873091358e-21	8.167673315398254e-16	-1.276601218475117e-21	3.944818480537828e-17	-1.11701254221479e-15	0	0	2.642229848239535e-16	-1.687595058815555e-17	-9.894974624879015e-16	-1.03380395989697e-15	-1.898300017774389e-16	0	0	-1.50543915917972e-16	-2.794616205686173e-19
